<?xml version="1.0" encoding="UTF-8" standalone="no"?>
<!DOCTYPE svg PUBLIC "-//W3C//DTD SVG 1.1//EN" "http://www.w3.org/Graphics/SVG/1.1/DTD/svg11.dtd">
<svg version="1.1" xmlns="http://www.w3.org/2000/svg" xmlns:xlink="http://www.w3.org/1999/xlink" preserveAspectRatio="xMidYMid meet" viewBox="0 0 333 333" width="35" height="35"><defs><path d="M345.2 149.67L345.2 149.67L344.39 149.67L345.2 149.67Z" id="a4o1BUxazH"></path><path d="M217.23 64.73L268.2 64.73L268.2 176.52L217.23 176.52L217.23 64.73Z" id="h2kaR78XA"></path><path d="M167.97 137.48L167.97 137.48L167.97 138.29L167.97 138.29L167.97 137.48Z" id="i2zPzMHSWD"></path><path d="M116.77 144.96L218.81 144.96L218.81 188.05L116.77 188.05L116.77 144.96Z" id="b283nAsw7"></path><path d="M67.38 64.73L118.35 64.73L118.35 165.46L67.38 165.46L67.38 64.73Z" id="bH3fyCSAZ"></path><path d="M67.38 162.92L118.35 162.92L118.35 263.66L67.38 263.66L67.38 162.92Z" id="a22ruqrFvG"></path><path d="M2.97 0.14L333.39 0L333.4 21.47L2.98 21.6L2.97 0.14Z" id="b2iKYDKMC"></path><path d="M0 332.99L0.41 0L21.87 0.03L21.47 333.02L0 332.99Z" id="a3KXb4r85M"></path><path d="M311.53 332.97L311.93 -0.02L333.4 0.01L332.99 333L311.53 332.97Z" id="a442srSjtp"></path><path d="M0 311.53L330.42 311.4L330.43 332.86L0.01 333L0 311.53Z" id="au84TKDgf"></path><path d="M217.23 155.03L268.2 155.03L268.2 263.66L217.23 263.66L217.23 155.03Z" id="e1tXciyJLf"></path></defs><g><g><g><use xlink:href="#a4o1BUxazH" opacity="1" fill="#f5dced" fill-opacity="1"></use></g><g><use xlink:href="#h2kaR78XA" opacity="1" fill="#000000" fill-opacity="1"></use></g><g><use xlink:href="#i2zPzMHSWD" opacity="1" fill="#f5dced" fill-opacity="1"></use></g><g><use xlink:href="#b283nAsw7" opacity="1" fill="#000000" fill-opacity="1"></use></g><g><use xlink:href="#bH3fyCSAZ" opacity="1" fill="#000000" fill-opacity="1"></use></g><g><use xlink:href="#a22ruqrFvG" opacity="1" fill="#000000" fill-opacity="1"></use></g><g><use xlink:href="#b2iKYDKMC" opacity="1" fill="#000000" fill-opacity="1"></use></g><g><use xlink:href="#a3KXb4r85M" opacity="1" fill="#000000" fill-opacity="1"></use></g><g><use xlink:href="#a442srSjtp" opacity="1" fill="#000000" fill-opacity="1"></use></g><g><use xlink:href="#au84TKDgf" opacity="1" fill="#000000" fill-opacity="1"></use></g><g><use xlink:href="#e1tXciyJLf" opacity="1" fill="#000000" fill-opacity="1"></use></g></g></g></svg>